<?xml version="1.0" encoding="UTF-8" standalone="no"?>
<!DOCTYPE svg PUBLIC "-//W3C//DTD SVG 1.1//EN" "http://www.w3.org/Graphics/SVG/1.1/DTD/svg11.dtd">
<svg width="100%" height="100%" viewBox="0 0 122 122" version="1.1" xmlns="http://www.w3.org/2000/svg" xmlns:xlink="http://www.w3.org/1999/xlink" xml:space="preserve" xmlns:serif="http://www.serif.com/" style="fill-rule:evenodd;clip-rule:evenodd;stroke-linejoin:round;stroke-miterlimit:2;">
    <g id="Heavy-L" transform="matrix(1,0,0,1,-16.0645,95.8496)">
        <path d="M38.818,25.488L114.697,25.488C129.346,25.488 137.451,17.432 137.451,2.881L137.451,-73.242C137.451,-87.793 129.346,-95.85 114.697,-95.85L38.818,-95.85C24.219,-95.85 16.064,-87.793 16.064,-73.242L16.064,2.881C16.064,17.432 24.219,25.488 38.818,25.488ZM40.918,8.008C36.084,8.008 33.594,5.713 33.594,0.586L33.594,-70.947C33.594,-76.074 36.084,-78.369 40.918,-78.369L112.549,-78.369C117.383,-78.369 119.922,-76.074 119.922,-70.947L119.922,0.586C119.922,5.713 117.383,8.008 112.549,8.008L40.918,8.008Z" style="fill-rule:nonzero;"/>
    </g>
    <g transform="matrix(1,0,0,1,-1.28534,0.208361)">
        <path d="M86.461,49.118C86.461,42.858 81.379,37.775 75.119,37.775L48.838,37.775C42.578,37.775 37.496,42.858 37.496,49.118L37.496,71.803C37.496,78.063 42.578,83.146 48.838,83.146L75.119,83.146C81.379,83.146 86.461,78.063 86.461,71.803L86.461,49.118Z" style="fill:rgb(12,9,60);"/>
    </g>
</svg>
