<?xml version="1.0" encoding="UTF-8" standalone="no"?>
<!DOCTYPE svg PUBLIC "-//W3C//DTD SVG 1.1//EN" "http://www.w3.org/Graphics/SVG/1.1/DTD/svg11.dtd">
<svg width="100%" height="100%" viewBox="0 0 376 308" version="1.1" xmlns="http://www.w3.org/2000/svg" xmlns:xlink="http://www.w3.org/1999/xlink" xml:space="preserve" xmlns:serif="http://www.serif.com/" style="fill-rule:evenodd;clip-rule:evenodd;stroke-linejoin:round;stroke-miterlimit:2;">
    <g transform="matrix(4.16667,0,0,4.16667,0,0)">
        <g id="Regular-S" transform="matrix(1,0,0,1,-9.76562,73.3398)">
            <path d="M22.217,0.391L87.549,0.391C95.85,0.391 100,-3.711 100,-11.914L100,-51.856C100,-60.059 95.85,-64.111 87.549,-64.111L79.102,-64.111C76.123,-64.111 75.195,-64.844 73.535,-66.65L70.557,-70.019C68.652,-72.07 66.602,-73.34 62.598,-73.34L47.119,-73.34C43.115,-73.34 41.016,-72.07 39.16,-70.019L36.182,-66.65C34.522,-64.844 33.545,-64.111 30.615,-64.111L22.217,-64.111C13.916,-64.111 9.766,-60.059 9.766,-51.856L9.766,-11.914C9.766,-3.711 13.916,0.391 22.217,0.391ZM22.315,-6.689C18.799,-6.689 16.797,-8.545 16.797,-12.256L16.797,-51.465C16.797,-55.176 18.799,-57.08 22.315,-57.08L32.471,-57.08C35.889,-57.08 37.793,-57.813 39.697,-59.912L42.578,-63.184C44.775,-65.625 45.898,-66.309 49.414,-66.309L60.254,-66.309C63.77,-66.309 64.893,-65.625 67.09,-63.184L70.019,-59.912C71.875,-57.813 73.828,-57.08 77.246,-57.08L87.451,-57.08C90.967,-57.08 92.969,-55.176 92.969,-51.465L92.969,-12.256C92.969,-8.545 90.967,-6.689 87.451,-6.689L22.315,-6.689ZM54.883,-12.305C66.406,-12.305 75.684,-21.533 75.684,-33.106C75.684,-44.727 66.406,-53.955 54.883,-53.955C43.359,-53.955 34.082,-44.727 34.082,-33.106C34.082,-21.533 43.359,-12.305 54.883,-12.305ZM82.373,-42.285C85.107,-42.285 87.354,-44.482 87.354,-47.217C87.354,-50 85.107,-52.197 82.373,-52.197C79.639,-52.197 77.393,-50 77.393,-47.217C77.393,-44.482 79.639,-42.285 82.373,-42.285ZM54.883,-18.897C47.07,-18.897 40.625,-25.195 40.625,-33.106C40.625,-41.016 47.022,-47.363 54.883,-47.363C62.744,-47.363 69.141,-41.016 69.141,-33.106C69.141,-25.195 62.744,-18.897 54.883,-18.897Z" style="fill-rule:nonzero;"/>
        </g>
    </g>
</svg>
