<?xml version="1.0" encoding="UTF-8" standalone="no"?>
<!DOCTYPE svg PUBLIC "-//W3C//DTD SVG 1.1//EN" "http://www.w3.org/Graphics/SVG/1.1/DTD/svg11.dtd">
<svg width="100%" height="100%" viewBox="0 0 411 302" version="1.1" xmlns="http://www.w3.org/2000/svg" xmlns:xlink="http://www.w3.org/1999/xlink" xml:space="preserve" xmlns:serif="http://www.serif.com/" style="fill-rule:evenodd;clip-rule:evenodd;stroke-linejoin:round;stroke-miterlimit:2;">
    <g transform="matrix(4.16667,0,0,4.16667,0,0)">
        <g id="Regular-S" transform="matrix(1,0,0,1,-9.76562,71.3379)">
            <path d="M88.672,0.928L98.682,0.928C105.029,0.928 108.35,-2.148 108.35,-8.105L108.35,-62.305C108.35,-68.262 105.029,-71.338 98.682,-71.338L88.672,-71.338C82.324,-71.338 79.053,-68.262 79.053,-62.305L79.053,-8.105C79.053,-2.148 82.324,0.928 88.672,0.928ZM89.941,-5.664C86.963,-5.664 85.986,-6.543 85.986,-9.424L85.986,-60.938C85.986,-63.818 86.963,-64.746 89.941,-64.746L97.461,-64.746C100.439,-64.746 101.416,-63.818 101.416,-60.938L101.416,-9.424C101.416,-6.543 100.439,-5.664 97.461,-5.664L89.941,-5.664ZM54.004,0.928L64.063,0.928C70.41,0.928 73.682,-2.148 73.682,-8.105L73.682,-51.074C73.682,-57.031 70.41,-60.107 64.063,-60.107L54.004,-60.107C47.656,-60.107 44.385,-57.031 44.385,-51.074L44.385,-8.105C44.385,-2.148 47.656,0.928 54.004,0.928ZM55.273,-5.664C52.295,-5.664 51.367,-6.543 51.367,-9.424L51.367,-49.756C51.367,-52.637 52.295,-53.516 55.273,-53.516L62.842,-53.516C65.82,-53.516 66.748,-52.637 66.748,-49.756L66.748,-9.424C66.748,-6.543 65.82,-5.664 62.842,-5.664L55.273,-5.664ZM19.385,0.928L29.395,0.928C35.742,0.928 39.063,-2.148 39.063,-8.105L39.063,-39.893C39.063,-45.85 35.742,-48.926 29.395,-48.926L19.385,-48.926C13.037,-48.926 9.766,-45.85 9.766,-39.893L9.766,-8.105C9.766,-2.148 13.037,0.928 19.385,0.928ZM20.654,-5.664C17.676,-5.664 16.699,-6.543 16.699,-9.424L16.699,-38.525C16.699,-41.406 17.676,-42.334 20.654,-42.334L28.174,-42.334C31.152,-42.334 32.129,-41.406 32.129,-38.525L32.129,-9.424C32.129,-6.543 31.152,-5.664 28.174,-5.664L20.654,-5.664Z" style="fill-rule:nonzero;"/>
        </g>
    </g>
</svg>
