<?xml version="1.0" encoding="UTF-8" standalone="no"?>
<!DOCTYPE svg PUBLIC "-//W3C//DTD SVG 1.1//EN" "http://www.w3.org/Graphics/SVG/1.1/DTD/svg11.dtd">
<svg width="100%" height="100%" viewBox="0 0 249 374" version="1.1" xmlns="http://www.w3.org/2000/svg" xmlns:xlink="http://www.w3.org/1999/xlink" xml:space="preserve" xmlns:serif="http://www.serif.com/" style="fill-rule:evenodd;clip-rule:evenodd;stroke-linejoin:round;stroke-miterlimit:2;">
    <g transform="matrix(4.16667,0,0,4.16667,0,0)">
        <g id="Regular-S" transform="matrix(1,0,0,1,-14.5996,81.9824)">
            <path d="M30.176,-12.598L58.545,-12.598C60.01,-12.598 60.938,-13.574 60.938,-14.99L60.938,-21.387C60.938,-30.322 74.121,-36.426 74.121,-52.637C74.121,-70.264 62.207,-81.982 44.385,-81.982C26.514,-81.982 14.6,-70.264 14.6,-52.637C14.6,-36.426 27.783,-30.322 27.783,-21.387L27.783,-14.99C27.783,-13.574 28.711,-12.598 30.176,-12.598ZM34.277,-21.338C34.277,-32.568 21.191,-38.477 21.191,-52.637C21.191,-66.309 30.469,-75.391 44.385,-75.391C58.252,-75.391 67.529,-66.309 67.529,-52.637C67.529,-38.477 54.492,-32.568 54.492,-21.338L54.492,-19.19L34.277,-19.19L34.277,-21.338ZM31.543,-1.807L57.178,-1.807C59.228,-1.807 60.938,-3.516 60.938,-5.615C60.938,-7.715 59.228,-9.473 57.178,-9.473L31.543,-9.473C29.492,-9.473 27.783,-7.715 27.783,-5.615C27.783,-3.516 29.492,-1.807 31.543,-1.807ZM44.385,7.568C49.707,7.568 53.516,5.127 53.906,1.367L34.863,1.367C35.156,5.127 38.965,7.568 44.385,7.568Z" style="fill-rule:nonzero;"/>
        </g>
    </g>
</svg>
