<?xml version="1.0" encoding="UTF-8" standalone="no"?>
<!DOCTYPE svg PUBLIC "-//W3C//DTD SVG 1.1//EN" "http://www.w3.org/Graphics/SVG/1.1/DTD/svg11.dtd">
<svg width="100%" height="100%" viewBox="0 0 339 379" version="1.1" xmlns="http://www.w3.org/2000/svg" xmlns:xlink="http://www.w3.org/1999/xlink" xml:space="preserve" xmlns:serif="http://www.serif.com/" style="fill-rule:evenodd;clip-rule:evenodd;stroke-linejoin:round;stroke-miterlimit:2;">
    <g transform="matrix(4.16667,0,0,4.16667,0,0)">
        <g id="Light-S" transform="matrix(1,0,0,1,-8.78875,80.9412)">
            <path d="M20.264,-40.723C17.09,-37.549 17.236,-33.545 20.654,-30.127L28.565,-22.168C24.561,-19.678 16.406,-16.357 12.793,-12.744C7.422,-7.324 7.422,0.049 12.988,5.615C18.555,11.133 25.879,11.182 31.299,5.762C34.912,2.148 38.281,-5.957 40.772,-9.961L48.731,-2.002C52.148,1.367 56.201,1.514 59.375,-1.66L63.281,-5.664C65.869,-8.301 66.26,-11.475 64.404,-14.355C66.016,-14.697 67.529,-15.576 68.75,-16.846L86.963,-35.156C91.065,-39.258 90.967,-44.043 86.67,-48.291L56.152,-78.809C53.516,-81.445 49.951,-81.69 47.51,-79.248C46.436,-78.174 45.557,-76.611 45.117,-74.463C43.115,-64.99 39.063,-56.201 33.691,-49.561C32.861,-48.438 32.275,-47.412 32.031,-46.289C29.395,-47.51 26.611,-47.022 24.268,-44.678L20.264,-40.723ZM64.111,-19.727C62.353,-17.969 60.645,-18.506 59.082,-20.068L38.379,-40.723L38.428,-40.772C36.865,-42.285 36.231,-43.945 38.379,-46.973C43.066,-53.369 47.412,-61.963 50.147,-72.266C50.244,-72.803 50.488,-73.242 50.879,-73.633C51.563,-74.316 52.441,-74.561 53.418,-73.633L72.217,-54.785C71.289,-48.535 66.26,-42.236 62.451,-38.428C62.109,-38.086 61.572,-37.549 62.158,-36.963C64.063,-35.059 75.342,-43.164 79.932,-47.07L82.617,-44.434C84.57,-42.432 84.668,-40.332 82.861,-38.525L64.111,-19.727ZM24.805,-37.451L27.49,-40.137C28.857,-41.455 30.469,-41.455 31.836,-40.039L58.643,-13.184C60.01,-11.768 60.059,-10.254 58.74,-8.887L56.103,-6.201C54.785,-4.834 53.174,-4.932 51.758,-6.299L42.041,-16.016C40.82,-17.285 39.404,-16.797 38.135,-15.137C35.059,-10.498 30.615,-0.83 27.783,2.002C24.414,5.273 19.922,5.371 16.553,2.002C13.232,-1.318 13.232,-5.859 16.602,-9.18C19.385,-11.963 29.053,-16.455 33.74,-19.58C35.4,-20.801 35.889,-22.217 34.57,-23.486L24.902,-33.154C23.535,-34.473 23.486,-36.133 24.805,-37.451ZM19.238,-0.635C20.459,0.586 22.363,0.586 23.535,-0.635C24.756,-1.904 24.707,-3.711 23.535,-4.932C22.315,-6.152 20.41,-6.152 19.238,-4.932C18.115,-3.662 18.018,-1.855 19.238,-0.635Z" style="fill-rule:nonzero;"/>
        </g>
    </g>
</svg>
