<?xml version="1.0" encoding="UTF-8" standalone="no"?>
<!DOCTYPE svg PUBLIC "-//W3C//DTD SVG 1.1//EN" "http://www.w3.org/Graphics/SVG/1.1/DTD/svg11.dtd">
<svg width="100%" height="100%" viewBox="0 0 499 364" version="1.1" xmlns="http://www.w3.org/2000/svg" xmlns:xlink="http://www.w3.org/1999/xlink" xml:space="preserve" xmlns:serif="http://www.serif.com/" style="fill-rule:evenodd;clip-rule:evenodd;stroke-linejoin:round;stroke-miterlimit:2;">
    <g transform="matrix(4.16667,0,0,4.16667,0,0)">
        <g id="Regular-S" transform="matrix(1,0,0,1,-6.83594,80.6641)">
            <path d="M42.041,6.494C49.463,6.494 56.006,4.834 61.377,0.049C63.281,1.465 65.478,2.295 69.092,2.295C72.461,2.295 74.854,1.27 79.492,1.27C83.643,1.27 85.693,2.295 88.965,2.295C97.363,2.295 99.902,-2.148 99.902,-6.836C99.902,-14.209 94.873,-18.457 84.18,-19.58C87.94,-21.289 91.26,-22.412 93.457,-22.998C98.047,-20.264 104.736,-18.506 109.424,-18.555C119.678,-18.652 126.416,-21.875 126.416,-32.959C126.416,-46.143 116.553,-55.762 104.688,-56.103L96.582,-66.894C89.893,-75.732 83.154,-80.664 74.219,-80.664C67.432,-80.664 57.617,-76.904 57.617,-71.338C57.617,-66.504 63.037,-63.232 67.481,-60.4C72.9,-56.934 80.811,-52.344 88.037,-48.145C87.5,-47.754 86.914,-47.461 86.084,-47.461C85.205,-47.461 83.74,-48.047 82.178,-48.926C65.772,-58.008 56.543,-65.186 44.678,-65.186C30.176,-65.186 19.775,-57.861 14.99,-43.652C10.156,-42.529 6.836,-39.356 6.836,-34.375C6.836,-28.174 11.963,-25.098 16.797,-24.854C20.02,-19.434 30.225,-13.672 43.701,-14.893L47.022,-12.109C46.094,-11.572 45.264,-11.475 44.287,-11.475C42.041,-11.523 39.648,-12.158 36.719,-12.158C31.152,-12.158 27.148,-8.936 27.148,-4.053C27.148,2.734 33.154,6.494 42.041,6.494ZM79.248,-4.932C74.268,-4.932 71.191,-4.297 69.238,-4.297C67.725,-4.297 65.967,-4.395 64.209,-5.859L46.68,-21.045C34.228,-20.459 25.342,-23.828 20.313,-31.055C16.553,-30.469 13.721,-31.836 13.721,-34.961C13.721,-37.793 16.26,-39.795 20.508,-39.551C24.268,-52.441 32.813,-58.252 44.629,-58.252C57.275,-58.252 70.996,-47.363 79.932,-42.432C82.08,-41.211 84.961,-40.772 86.67,-40.772C91.211,-40.772 94.727,-43.603 97.412,-49.072L71.484,-65.283C69.629,-66.504 65.625,-69.434 65.625,-70.361C65.625,-72.51 70.752,-73.926 74.316,-73.926C80.127,-73.926 85.01,-70.41 89.551,-64.893L101.66,-50.928C112.695,-51.172 120.508,-43.262 120.508,-32.91C120.508,-26.221 117.334,-24.219 109.668,-24.219C104.883,-24.219 99.512,-26.074 94.531,-28.809C87.549,-27.539 79.883,-24.365 73.682,-19.727C72.9,-19.678 72.315,-19.629 71.777,-19.58L68.897,-26.611C63.379,-40.186 54.102,-45.117 44.727,-45.117C43.164,-45.117 41.455,-45.117 39.746,-44.727C37.598,-44.287 36.816,-43.115 36.816,-41.699C36.816,-40.088 38.037,-39.014 39.746,-39.063C41.553,-39.063 42.432,-39.307 44.385,-39.307C53.076,-39.307 59.033,-34.375 64.111,-22.217L67.92,-13.281C70.898,-13.867 73.926,-14.355 78.272,-14.355C85.644,-14.355 93.457,-12.695 93.457,-7.373C93.457,-5.371 91.943,-4.053 88.965,-4.053C85.107,-4.053 82.519,-4.932 79.248,-4.932ZM106.787,-35.352C108.594,-35.303 110.01,-36.914 110.107,-38.672C110.156,-40.381 108.838,-41.895 106.982,-41.943C105.225,-41.992 103.76,-40.478 103.711,-38.77C103.613,-36.963 104.98,-35.4 106.787,-35.352ZM33.398,-4.004C33.398,-5.371 34.326,-6.445 36.328,-6.445C38.477,-6.445 40.772,-6.055 43.115,-6.055C46.777,-6.055 49.316,-6.299 51.807,-8.057L56.543,-4.053C53.223,-1.074 48.096,0.635 41.797,0.635C36.768,0.635 33.398,-1.172 33.398,-4.004Z" style="fill-rule:nonzero;"/>
        </g>
    </g>
</svg>
