<?xml version="1.0" encoding="UTF-8" standalone="no"?>
<!DOCTYPE svg PUBLIC "-//W3C//DTD SVG 1.1//EN" "http://www.w3.org/Graphics/SVG/1.1/DTD/svg11.dtd">
<svg width="100%" height="100%" viewBox="0 0 424 348" version="1.1" xmlns="http://www.w3.org/2000/svg" xmlns:xlink="http://www.w3.org/1999/xlink" xml:space="preserve" xmlns:serif="http://www.serif.com/" style="fill-rule:evenodd;clip-rule:evenodd;stroke-linejoin:round;stroke-miterlimit:2;">
    <g transform="matrix(4.16667,0,0,4.16667,0,0)">
        <g id="Regular-S" transform="matrix(1,0,0,1,-9.76562,77.2461)">
            <path d="M22.217,-12.695L29.199,-12.695L29.199,-6.104C29.199,2.1 33.301,6.201 41.65,6.201L99.072,6.201C107.373,6.201 111.523,2.1 111.523,-6.104L111.523,-46.582C111.523,-54.785 107.373,-58.838 99.072,-58.838L92.09,-58.838L92.09,-64.99C92.09,-73.193 87.94,-77.246 79.639,-77.246L22.217,-77.246C13.867,-77.246 9.766,-73.193 9.766,-64.99L9.766,-24.951C9.766,-16.748 13.867,-12.695 22.217,-12.695ZM22.315,-19.727C18.799,-19.727 16.797,-21.631 16.797,-25.342L16.797,-64.6C16.797,-68.311 18.799,-70.215 22.315,-70.215L79.541,-70.215C83.057,-70.215 85.059,-68.311 85.059,-64.6L85.059,-58.838L41.65,-58.838C33.301,-58.838 29.199,-54.785 29.199,-46.582L29.199,-19.727L22.315,-19.727ZM36.231,-46.191C36.231,-49.902 38.232,-51.807 41.748,-51.807L98.975,-51.807C102.49,-51.807 104.492,-49.902 104.492,-46.191L104.492,-15.332L91.26,-27.93C89.6,-29.443 87.549,-30.225 85.596,-30.225C83.545,-30.225 81.641,-29.492 79.883,-27.979L62.695,-12.647L55.762,-18.848C54.15,-20.313 52.344,-21.045 50.586,-21.045C48.975,-21.045 47.315,-20.361 45.703,-18.897L36.231,-10.791L36.231,-46.191ZM56.397,-26.904C61.328,-26.904 65.381,-30.957 65.381,-35.938C65.381,-40.869 61.328,-44.971 56.397,-44.971C51.416,-44.971 47.363,-40.869 47.363,-35.938C47.363,-30.957 51.416,-26.904 56.397,-26.904Z" style="fill-rule:nonzero;"/>
        </g>
    </g>
</svg>
