<?xml version="1.0" encoding="UTF-8" standalone="no"?>
<!DOCTYPE svg PUBLIC "-//W3C//DTD SVG 1.1//EN" "http://www.w3.org/Graphics/SVG/1.1/DTD/svg11.dtd">
<svg width="100%" height="100%" viewBox="0 0 369 365" version="1.1" xmlns="http://www.w3.org/2000/svg" xmlns:xlink="http://www.w3.org/1999/xlink" xml:space="preserve" xmlns:serif="http://www.serif.com/" style="fill-rule:evenodd;clip-rule:evenodd;stroke-linejoin:round;stroke-miterlimit:2;">
    <g transform="matrix(4.16667,0,0,4.16667,0,0)">
        <g id="Regular-S" transform="matrix(1,0,0,1,-6.83594,81.3477)">
            <path d="M42.188,6.201L82.861,6.201C91.162,6.201 95.313,2.1 95.313,-6.104L95.313,-46.582C95.313,-54.785 91.162,-58.838 82.861,-58.838L69.043,-58.838C65.039,-71.777 52.881,-81.348 38.623,-81.348C21.191,-81.348 6.836,-66.992 6.836,-49.609C6.836,-35.303 16.553,-23.047 29.736,-19.141L29.736,-6.104C29.736,2.1 33.838,6.201 42.188,6.201ZM14.063,-49.609C14.063,-63.379 24.658,-74.463 38.623,-74.463C49.268,-74.463 58.008,-68.018 61.523,-58.838L42.188,-58.838C33.838,-58.838 29.736,-54.785 29.736,-46.582L29.736,-26.318C20.41,-29.883 14.063,-38.965 14.063,-49.609ZM42.285,-0.879C38.77,-0.879 36.768,-2.783 36.768,-6.445L36.768,-46.191C36.768,-49.902 38.77,-51.807 42.285,-51.807L82.764,-51.807C86.279,-51.807 88.281,-49.902 88.281,-46.191L88.281,-6.445C88.281,-2.734 86.279,-0.879 82.764,-0.879L42.285,-0.879Z" style="fill-rule:nonzero;"/>
        </g>
    </g>
</svg>
