<?xml version="1.0" encoding="UTF-8" standalone="no"?>
<!DOCTYPE svg PUBLIC "-//W3C//DTD SVG 1.1//EN" "http://www.w3.org/Graphics/SVG/1.1/DTD/svg11.dtd">
<svg width="100%" height="100%" viewBox="0 0 325 275" version="1.1" xmlns="http://www.w3.org/2000/svg" xmlns:xlink="http://www.w3.org/1999/xlink" xml:space="preserve" xmlns:serif="http://www.serif.com/" style="fill-rule:evenodd;clip-rule:evenodd;stroke-linejoin:round;stroke-miterlimit:2;">
    <g transform="matrix(4.16667,0,0,4.16667,0,0)">
        <g id="Regular-S" transform="matrix(1,0,0,1,-9.76562,68.1152)">
            <path d="M62.012,-48.975C66.016,-48.975 69.482,-51.514 70.898,-55.029L84.277,-55.029C86.084,-55.029 87.647,-56.592 87.647,-58.545C87.647,-60.498 86.084,-62.06 84.277,-62.06L70.898,-62.06C69.482,-65.576 66.016,-68.115 62.012,-68.115C58.008,-68.115 54.541,-65.576 53.125,-62.06L13.281,-62.06C11.328,-62.06 9.766,-60.498 9.766,-58.545C9.766,-56.592 11.328,-55.029 13.281,-55.029L53.125,-55.029C54.541,-51.514 58.008,-48.975 62.012,-48.975ZM62.012,-54.199C59.57,-54.199 57.666,-56.152 57.666,-58.545C57.666,-61.035 59.57,-62.891 62.012,-62.891C64.453,-62.891 66.357,-61.035 66.357,-58.545C66.357,-56.152 64.453,-54.199 62.012,-54.199ZM13.086,-38.721C11.328,-38.721 9.766,-37.158 9.766,-35.205C9.766,-33.203 11.328,-31.69 13.086,-31.69L26.611,-31.69C28.027,-28.125 31.494,-25.635 35.498,-25.635C39.502,-25.635 42.969,-28.125 44.385,-31.69L84.131,-31.69C86.084,-31.69 87.647,-33.203 87.647,-35.205C87.647,-37.158 86.084,-38.721 84.131,-38.721L44.385,-38.721C42.969,-42.236 39.502,-44.727 35.498,-44.727C31.494,-44.727 28.027,-42.236 26.611,-38.721L13.086,-38.721ZM35.498,-30.859C33.057,-30.859 31.152,-32.764 31.152,-35.205C31.152,-37.647 33.057,-39.551 35.498,-39.551C37.94,-39.551 39.844,-37.647 39.844,-35.205C39.844,-32.764 37.94,-30.859 35.498,-30.859ZM62.012,-2.295C66.016,-2.295 69.482,-4.785 70.898,-8.35L84.277,-8.35C86.084,-8.35 87.647,-9.863 87.647,-11.865C87.647,-13.818 86.084,-15.381 84.277,-15.381L70.898,-15.381C69.482,-18.897 66.016,-21.387 62.012,-21.387C58.008,-21.387 54.541,-18.897 53.125,-15.381L13.281,-15.381C11.328,-15.381 9.766,-13.818 9.766,-11.865C9.766,-9.863 11.328,-8.35 13.281,-8.35L53.125,-8.35C54.541,-4.785 58.008,-2.295 62.012,-2.295ZM62.012,-7.52C59.57,-7.52 57.666,-9.424 57.666,-11.865C57.666,-14.307 59.57,-16.211 62.012,-16.211C64.453,-16.211 66.357,-14.307 66.357,-11.865C66.357,-9.424 64.453,-7.52 62.012,-7.52Z" style="fill-rule:nonzero;"/>
        </g>
    </g>
</svg>
