<?xml version="1.0" encoding="UTF-8" standalone="no"?>
<!DOCTYPE svg PUBLIC "-//W3C//DTD SVG 1.1//EN" "http://www.w3.org/Graphics/SVG/1.1/DTD/svg11.dtd">
<svg width="100%" height="100%" viewBox="0 0 426 328" version="1.1" xmlns="http://www.w3.org/2000/svg" xmlns:xlink="http://www.w3.org/1999/xlink" xml:space="preserve" xmlns:serif="http://www.serif.com/" style="fill-rule:evenodd;clip-rule:evenodd;stroke-linejoin:round;stroke-miterlimit:2;">
    <g transform="matrix(4.16667,0,0,4.16667,0,0)">
        <g id="Regular-S" transform="matrix(1,0,0,1,-9.76562,74.2188)">
            <path d="M20.117,-9.766L101.562,-9.766C108.447,-9.766 111.914,-13.037 111.914,-20.117L111.914,-63.818C111.914,-70.947 108.447,-74.219 101.562,-74.219L20.117,-74.219C13.232,-74.219 9.766,-70.947 9.766,-63.818L9.766,-20.117C9.766,-13.037 13.232,-9.766 20.117,-9.766ZM20.215,-16.797C17.822,-16.797 16.797,-17.725 16.797,-20.215L16.797,-63.721C16.797,-66.211 17.822,-67.139 20.215,-67.139L101.465,-67.139C103.857,-67.139 104.883,-66.211 104.883,-63.721L104.883,-20.215C104.883,-17.725 103.857,-16.797 101.465,-16.797L20.215,-16.797ZM88.867,0.488C88.867,-1.611 87.158,-3.369 85.107,-3.369L36.572,-3.369C34.473,-3.369 32.764,-1.611 32.764,0.488C32.764,2.588 34.473,4.297 36.572,4.297L85.107,4.297C87.158,4.297 88.867,2.588 88.867,0.488Z" style="fill-rule:nonzero;"/>
        </g>
    </g>
</svg>
